<?xml version="1.0" encoding="iso-8859-1"?>
<!-- Generator: Adobe Illustrator 21.0.0, SVG Export Plug-In . SVG Version: 6.00 Build 0)  -->
<svg version="1.1" xmlns="http://www.w3.org/2000/svg" xmlns:xlink="http://www.w3.org/1999/xlink" x="0px" y="0px"
	 viewBox="0 0 130 130" style="enable-background:new 0 0 130 130;" xml:space="preserve">
<g id="_x31_0045">
	<g>
		
			<line style="fill:none;stroke:#187ABA;stroke-width:1.5;stroke-linecap:round;stroke-linejoin:round;stroke-miterlimit:10;" x1="38.507" y1="85.487" x2="53.774" y2="85.487"/>
		
			<line style="fill:none;stroke:#187ABA;stroke-width:1.5;stroke-linecap:round;stroke-linejoin:round;stroke-miterlimit:10;" x1="38.507" y1="73.588" x2="56.132" y2="73.588"/>
		
			<line style="fill:none;stroke:#187ABA;stroke-width:1.5;stroke-linecap:round;stroke-linejoin:round;stroke-miterlimit:10;" x1="38.507" y1="61.688" x2="66.796" y2="61.688"/>
		
			<line style="fill:none;stroke:#187ABA;stroke-width:1.5;stroke-linecap:round;stroke-linejoin:round;stroke-miterlimit:10;" x1="38.507" y1="50.575" x2="85.206" y2="50.575"/>
		
			<line style="fill:none;stroke:#187ABA;stroke-width:1.5;stroke-linecap:round;stroke-linejoin:round;stroke-miterlimit:10;" x1="38.507" y1="38.226" x2="85.206" y2="38.226"/>
		
			<polyline style="fill:none;stroke:#187ABA;stroke-width:1.5;stroke-linecap:round;stroke-linejoin:round;stroke-miterlimit:10;" points="
			68.929,85.712 75.103,92.223 90.37,75.272 		"/>
		<path style="fill:none;stroke:#187ABA;stroke-width:1.5;stroke-linecap:round;stroke-linejoin:round;stroke-miterlimit:10;" d="
			M104.066,83.579c0,13.808-11.226,24.921-25.034,24.921S53.999,97.386,53.999,83.579c0-13.92,11.226-25.034,25.034-25.034
			S104.066,69.659,104.066,83.579L104.066,83.579z"/>
		
			<polyline style="fill:none;stroke:#187ABA;stroke-width:1.5;stroke-linecap:round;stroke-linejoin:round;stroke-miterlimit:10;" points="
			66.908,105.357 25.934,105.357 25.934,21.5 99.575,21.5 99.575,69.21 		"/>
	</g>
</g>
<g id="Layer_1">
</g>
</svg>
