<?xml version="1.0" encoding="iso-8859-1"?>
<!-- Generator: Adobe Illustrator 21.0.0, SVG Export Plug-In . SVG Version: 6.00 Build 0)  -->
<svg version="1.1" xmlns="http://www.w3.org/2000/svg" xmlns:xlink="http://www.w3.org/1999/xlink" x="0px" y="0px"
	 viewBox="0 0 130 130" style="enable-background:new 0 0 130 130;" xml:space="preserve">
<g id="_x31_0447">
	<g>
		
			<polyline style="fill:none;stroke:#187ABA;stroke-width:1.5;stroke-linecap:round;stroke-linejoin:round;stroke-miterlimit:10;" points="
			60.452,87.556 24.061,87.556 20.722,87.556 20.722,91.797 24.061,91.797 60.452,91.797 		"/>
		
			<polyline style="fill:none;stroke:#187ABA;stroke-width:1.5;stroke-linecap:round;stroke-linejoin:round;stroke-miterlimit:10;" points="
			65.655,45.782 26.045,45.782 26.045,72.489 26.045,72.489 26.045,72.489 63.407,72.489 		"/>
		
			<line style="fill:none;stroke:#187ABA;stroke-width:1.5;stroke-linecap:round;stroke-linejoin:round;stroke-miterlimit:10;" x1="65.655" y1="70.065" x2="65.655" y2="62.102"/>
		
			<polyline style="fill:none;stroke:#187ABA;stroke-width:1.5;stroke-linecap:round;stroke-linejoin:round;stroke-miterlimit:10;" points="
			55.549,86.835 55.549,84.128 48.151,84.128 48.151,72.498 		"/>
		
			<polyline style="fill:none;stroke:#187ABA;stroke-width:1.5;stroke-linecap:round;stroke-linejoin:round;stroke-miterlimit:10;" points="
			43.369,72.82 43.369,84.128 35.7,84.128 35.7,86.835 		"/>
		<path style="fill:none;stroke:#187ABA;stroke-width:1.5;stroke-linecap:round;stroke-linejoin:round;stroke-miterlimit:10;" d="
			M71.79,68.248c-6.135,0-11.188,5.684-11.188,12.812c0,18.767,0,18.767,0,18.767h47.549c0-18.767,0-18.767,0-18.767
			c0-7.128-5.053-12.812-11.278-12.812"/>
		<path style="fill:none;stroke:#187ABA;stroke-width:1.5;stroke-linecap:round;stroke-linejoin:round;stroke-miterlimit:10;" d="
			M82.482,68.248c-10.692,0-10.692,0-10.692,0c-6.135,0-11.188,5.684-11.188,12.812c0,18.767,0,18.767,0,18.767h47.549
			c0-18.767,0-18.767,0-18.767c0-7.128-5.053-12.812-11.278-12.812c-2.249,0-4.297,0-6.161,0"/>
		<path style="fill:none;stroke:#187ABA;stroke-width:1.5;stroke-linecap:round;stroke-linejoin:round;stroke-miterlimit:10;" d="
			M99.038,49.662c0,7.94-6.226,14.346-13.895,14.346s-13.895-6.406-13.895-14.346c0-7.85,6.226-14.256,13.895-14.256
			S99.038,41.812,99.038,49.662L99.038,49.662z"/>
		<path style="fill:none;stroke:#187ABA;stroke-width:1.5;stroke-linecap:round;stroke-linejoin:round;stroke-miterlimit:10;" d="
			M90.647,67.887c2.256-0.271,4.602-1.083,6.677-2.165c0.451-0.18,0.812-0.451,1.263-0.722c0.09,0,0.18-0.09,0.271-0.18
			c0.361-0.18,0.632-0.361,0.902-0.541c0.09-0.09,0.18-0.18,0.271-0.18c0.361-0.271,0.722-0.541,1.083-0.812l0,0
			c0.361-0.361,0.722-0.632,1.083-0.992c1.173,0,2.256-0.361,3.158-0.902l0,0c0.18-0.09,0.271-0.18,0.451-0.271l0,0
			c0.09-0.09,0.271-0.18,0.361-0.361c0,0,0,0,0.09,0c0.09-0.09,0.18-0.18,0.271-0.271c0,0,0-0.09,0.09-0.09
			c0.09-0.09,0.18-0.18,0.18-0.271c0.09,0,0.09-0.09,0.09-0.09c0.09-0.09,0.18-0.18,0.271-0.271c0-0.09,0-0.09,0.09-0.18
			c0-0.09,0.09-0.18,0.18-0.271c0-0.09,0-0.09,0.09-0.18c0-0.09,0.09-0.18,0.09-0.271c0.09-0.09,0.09-0.18,0.18-0.271
			c0,0,0-0.09,0-0.18c0.09-0.09,0.18-0.271,0.18-0.451c1.083-3.789,1.083-3.789,1.083-3.789c0.902-3.068-0.992-6.316-4.241-7.218
			c-0.18,0-0.271-0.09-0.361-0.09c-0.271-1.805-0.722-3.519-1.444-5.053c-0.992-2.346-2.346-4.331-4.15-6.045
			c-1.714-1.714-3.88-3.158-6.135-4.06c-2.346-0.992-4.872-1.534-7.579-1.534c-2.707,0-5.233,0.541-7.579,1.534
			c-2.346,0.902-4.421,2.346-6.226,4.06c-1.714,1.714-3.158,3.699-4.15,6.045c-0.632,1.534-1.173,3.248-1.353,5.053
			c-0.09,0-0.271,0.09-0.361,0.09c-3.248,0.902-5.143,4.15-4.241,7.218c0.992,3.789,0.992,3.789,0.992,3.789
			c0.812,2.617,3.248,4.331,5.955,4.331c0.09,0,0.271,0,0.451,0c0.361,0,0.722-0.09,1.173-0.18c0.451-0.18,0.902-0.361,1.353-0.541
			c-1.805-4.511-2.887-9.113-2.887-12.451l0,0c0-0.722,0.09-1.444,0.18-2.165c0.18-1.534,0.632-2.887,1.173-4.241
			c0.902-1.985,2.075-3.699,3.609-5.233c1.534-1.444,3.338-2.617,5.323-3.519c2.075-0.812,4.241-1.263,6.586-1.263
			c2.346,0,4.511,0.451,6.496,1.263c2.075,0.902,3.88,2.075,5.323,3.519c1.534,1.534,2.797,3.248,3.609,5.233
			c0.632,1.353,0.992,2.707,1.173,4.241c0.18,0.722,0.18,1.444,0.18,2.165c0,0.09,0,0.09,0,0.09c0,3.248-0.992,7.85-2.797,12.361
			c-0.18,0.451,3.248,0.722,3.248,0.722"/>
		<path style="fill:none;stroke:#187ABA;stroke-width:1.5;stroke-linecap:round;stroke-linejoin:round;stroke-miterlimit:10;" d="
			M90.647,67.887c2.256-0.271,4.602-1.083,6.677-2.165c0.451-0.18,0.812-0.451,1.263-0.722c0.09,0,0.18-0.09,0.271-0.18
			c0.361-0.18,0.632-0.361,0.902-0.541c0.09-0.09,0.18-0.18,0.271-0.18c0.361-0.271,0.722-0.541,1.083-0.812l0,0
			c0.361-0.361,0.722-0.632,1.083-0.992c1.173,0,2.256-0.361,3.158-0.902l0,0c0.18-0.09,0.271-0.18,0.451-0.271l0,0
			c0.09-0.09,0.271-0.18,0.361-0.361c0,0,0,0,0.09,0c0.09-0.09,0.18-0.18,0.271-0.271c0,0,0-0.09,0.09-0.09
			c0.09-0.09,0.18-0.18,0.18-0.271c0.09,0,0.09-0.09,0.09-0.09c0.09-0.09,0.18-0.18,0.271-0.271c0-0.09,0-0.09,0.09-0.18
			c0-0.09,0.09-0.18,0.18-0.271c0-0.09,0-0.09,0.09-0.18c0-0.09,0.09-0.18,0.09-0.271c0.09-0.09,0.09-0.18,0.18-0.271
			c0,0,0-0.09,0-0.18c0.09-0.09,0.18-0.271,0.18-0.451c1.083-3.789,1.083-3.789,1.083-3.789c0.902-3.068-0.992-6.316-4.241-7.218
			c-0.18,0-0.271-0.09-0.361-0.09c-0.271-1.805-0.722-3.519-1.444-5.053c-0.992-2.346-2.346-4.331-4.15-6.045
			c-1.714-1.714-3.88-3.158-6.135-4.06c-2.346-0.992-4.872-1.534-7.579-1.534c-2.707,0-5.233,0.541-7.579,1.534
			c-2.346,0.902-4.421,2.346-6.226,4.06c-1.714,1.714-3.158,3.699-4.15,6.045c-0.632,1.534-1.173,3.248-1.353,5.053
			c-0.09,0-0.271,0.09-0.361,0.09c-3.248,0.902-5.143,4.15-4.241,7.218c0.992,3.789,0.992,3.789,0.992,3.789
			c0.812,2.617,3.248,4.331,5.955,4.331c0.09,0,0.271,0,0.451,0c0.361,0,0.722-0.09,1.173-0.18c0.451-0.18,0.902-0.361,1.353-0.541
			c-1.805-4.511-2.887-9.113-2.887-12.451l0,0c0-0.722,0.09-1.444,0.18-2.165c0.18-1.534,0.632-2.887,1.173-4.241
			c0.902-1.985,2.075-3.699,3.609-5.233c1.534-1.444,3.338-2.617,5.323-3.519c2.075-0.812,4.241-1.263,6.586-1.263
			c2.346,0,4.511,0.451,6.496,1.263c2.075,0.902,3.88,2.075,5.323,3.519c1.534,1.534,2.797,3.248,3.609,5.233
			c0.632,1.353,0.992,2.707,1.173,4.241c0.18,0.722,0.18,1.444,0.18,2.165c0,0.09,0,0.09,0,0.09c0,3.248-0.992,7.85-2.797,12.361
			c-0.18,0.451,3.248,0.722,3.248,0.722"/>
		<path style="fill:none;stroke:#187ABA;stroke-width:1.5;stroke-linecap:round;stroke-linejoin:round;stroke-miterlimit:10;" d="
			M86.948,66.173c1.083,0,1.083,0,1.083,0c1.353,0,2.436,0.992,2.436,2.165c0,1.263-1.083,2.256-2.436,2.256
			c-1.083,0-1.083,0-1.083,0c-0.361,0-0.361,0-0.361,0c-1.353,0-1.353,0-1.353,0c-1.353,0-2.436-0.992-2.436-2.256
			c0-1.173,1.083-2.165,2.436-2.165c1.805,0,1.805,0,1.805,0"/>
		<path style="fill:none;stroke:#187ABA;stroke-width:1.5;stroke-linecap:round;stroke-linejoin:round;stroke-miterlimit:10;" d="
			M86.948,66.173c1.083,0,1.083,0,1.083,0c1.353,0,2.436,0.992,2.436,2.165c0,1.263-1.083,2.256-2.436,2.256
			c-1.083,0-1.083,0-1.083,0c-0.361,0-0.361,0-0.361,0c-1.353,0-1.353,0-1.353,0c-1.353,0-2.436-0.992-2.436-2.256
			c0-1.173,1.083-2.165,2.436-2.165c1.805,0,1.805,0,1.805,0"/>
	</g>
</g>
<g id="Layer_1">
</g>
</svg>
