<svg id="Layer_1" data-name="Layer 1" xmlns="http://www.w3.org/2000/svg" xmlns:xlink="http://www.w3.org/1999/xlink" viewBox="0 0 408 408"><defs><style>.cls-1{fill:none;}.cls-2{clip-path:url(#clip-path);}.cls-3{fill:#0f8ec7;}</style><clipPath id="clip-path" transform="translate(-93 -97)"><rect class="cls-1" x="93" y="97" width="408" height="408"/></clipPath></defs><title>i-building-nb</title><g class="cls-2"><path class="cls-3" d="M498.22,505H95.78a2.78,2.78,0,0,1,0-5.56h11.09V155.29a2.78,2.78,0,0,1,2.78-2.78h38.85v-25a2.78,2.78,0,0,1,2.78-2.78h87.42v-25a2.78,2.78,0,0,1,5.56,0v25h87.42a2.78,2.78,0,0,1,2.78,2.78v25h38.85a2.78,2.78,0,0,1,2.78,2.78V499.44h63.82V435.53a44.47,44.47,0,0,1-41.63-44.32c0-19.59,17.84-113.8,44.41-113.8s44.41,94.21,44.41,113.8a44.47,44.47,0,0,1-41.63,44.32v63.91h52.73a2.78,2.78,0,0,1,0,5.56Zm-149.87-5.56h22.19V158.07H112.44V499.44h22.19V183a2.78,2.78,0,0,1,2.78-2.78H345.57a2.78,2.78,0,0,1,2.78,2.78Zm-55.51,0h49.95V394H292.84Zm-48.57,0h43V394h-43Zm-48.57,0h43V394h-43Zm-55.51,0h49.95V394H140.19ZM442.71,283c-19.57,0-38.85,84.7-38.85,108.24a38.85,38.85,0,0,0,77.7,0C481.56,367.66,462.28,283,442.71,283Zm-136,105.45h36.07V352.35H306.72Zm-16.66,0h11.1V352.35H265.09v36.07Zm-48.57,0h18V352.35H223.46v36.07Zm-48.57,0h25V352.35H181.83v36.07Zm-52.73,0h36.07V352.35H140.19Zm166.53-41.63h36.07V310.72H306.72Zm-41.63,0h36.07V310.72H265.09Zm-41.63,0h36.07V310.72H223.46Zm-41.63,0h36.07V310.72H181.83Zm-41.63,0h36.07V310.72H140.19Zm166.53-41.63h36.07V269.09H306.72Zm-41.63,0h36.07V269.09H265.09Zm-41.63,0h36.07V269.09H223.46Zm-41.63,0h36.07V269.09H181.83Zm-41.63,0h36.07V269.09H140.19Zm166.53-41.63h36.07V227.46H306.72Zm-41.63,0h36.07V227.46H265.09Zm-41.63,0h36.07V227.46H223.46Zm-41.63,0h36.07V227.46H181.83Zm-41.63,0h36.07V227.46H140.19Zm166.53-41.63h36.07V185.83H306.72Zm-41.63,0h36.07V185.83H265.09Zm-41.63,0h36.07V185.83H223.46Zm-41.63,0h36.07V185.83H181.83Zm-41.63,0h36.07V185.83H140.19Zm13.88-69.38H328.91V130.32H154.07ZM433.87,406.9a2.77,2.77,0,0,1-.68-.08c-7-1.77-11.06-6.59-12-14.33a2.78,2.78,0,0,1,2.41-3.11,2.82,2.82,0,0,1,3.11,2.41c.69,5.46,3.12,8.43,7.88,9.63a2.78,2.78,0,0,1-.68,5.48Zm16-65.3a2.78,2.78,0,0,1-2.31-1.22c-3.08-4.56-6.59-6.09-11.38-5a2.78,2.78,0,1,1-1.22-5.43c7.05-1.6,12.85.88,17.22,7.33a2.78,2.78,0,0,1-2.3,4.34Z" transform="translate(-93 -97)"/></g></svg>