<?xml version="1.0" encoding="iso-8859-1"?>
<!-- Generator: Adobe Illustrator 21.0.0, SVG Export Plug-In . SVG Version: 6.00 Build 0)  -->
<svg version="1.1" xmlns="http://www.w3.org/2000/svg" xmlns:xlink="http://www.w3.org/1999/xlink" x="0px" y="0px"
	 viewBox="0 0 130 130" style="enable-background:new 0 0 130 130;" xml:space="preserve">
<g id="_x31_0241">
	<g>
		<path style="fill:none;stroke:#187ABA;stroke-width:1.5;stroke-linecap:round;stroke-linejoin:round;stroke-miterlimit:10;" d="
			M33.918,32.237c1.115-0.111,4.571-0.223,5.909,0.223c2.564,0.892,2.899,3.679,3.79,6.354c0.892,3.01,2.007,6.354,3.01,9.476
			c0.446,1.561,1.226,3.233,1.449,4.794c0,0.669-0.111,1.115-0.223,1.561c-0.446,1.784-2.453,3.233-3.567,4.459
			c-0.557,0.446-1.226,1.226-2.118,2.007c-0.334,0.446-1.895,1.449-1.895,2.118c0,0.557,0.78,1.561,1.226,2.118
			c4.682,7.469,10.479,13.489,17.28,18.841c1.449,1.226,3.679,2.787,5.797,4.125c0.669,0.446,1.449,1.226,2.007,1.226
			c0.669,0,1.672-1.338,2.118-1.784c1.449-1.449,2.453-2.453,3.902-3.902c0.892-0.892,1.784-2.007,3.456-2.118
			s3.679,0.892,5.128,1.338c3.456,1.115,6.466,2.118,9.81,3.122c2.787,0.892,5.797,1.226,6.577,3.902
			c0.334,1.003,0.334,5.128,0,6.243c-0.557,2.341-3.233,4.571-4.905,6.02c-2.23,1.784-4.013,3.01-6.689,4.236
			c-2.676,1.226-5.686,1.895-9.03,1.561c-9.365-1.115-16.945-5.24-23.188-9.587c-4.236-2.899-8.138-6.132-11.817-9.922
			c-7.358-7.246-13.935-15.273-17.837-25.752c-0.892-2.564-1.784-5.574-2.341-8.584c-0.223-1.672-0.334-3.456-0.223-5.128
			c0.223-1.449,0.78-3.122,1.226-4.236c1.003-2.564,2.341-4.682,4.013-6.8c1.561-2.007,3.122-4.013,5.463-5.351
			C32.692,32.571,33.249,32.348,33.918,32.237L33.918,32.237z M32.246,32.794c-2.341,1.338-3.902,3.344-5.463,5.351
			c-1.672,2.118-3.01,4.236-4.013,6.8c-0.446,1.115-1.003,2.787-1.226,4.236c-0.111,1.672,0,3.456,0.223,5.128
			c0.557,3.01,1.449,6.02,2.341,8.584c3.902,10.479,10.479,18.506,17.837,25.752c3.679,3.79,7.581,7.023,11.817,9.922
			c6.243,4.348,13.824,8.473,23.188,9.587c3.344,0.334,6.354-0.334,9.03-1.561c2.676-1.226,4.459-2.453,6.689-4.236
			c1.672-1.449,4.348-3.679,4.905-6.02c0.334-1.115,0.334-5.24,0-6.243c-0.78-2.676-3.79-3.01-6.577-3.902
			c-3.344-1.003-6.354-2.007-9.81-3.122c-1.449-0.446-3.456-1.449-5.128-1.338s-2.564,1.226-3.456,2.118
			c-1.449,1.449-2.453,2.453-3.902,3.902c-0.446,0.446-1.449,1.784-2.118,1.784c-0.557,0-1.338-0.78-2.007-1.226
			c-2.118-1.338-4.348-2.899-5.797-4.125c-6.8-5.351-12.598-11.371-17.28-18.841c-0.446-0.557-1.226-1.561-1.226-2.118
			c0-0.669,1.561-1.672,1.895-2.118c0.892-0.78,1.561-1.561,2.118-2.007c1.115-1.226,3.122-2.676,3.567-4.459
			c0.111-0.446,0.223-0.892,0.223-1.561c-0.223-1.561-1.003-3.233-1.449-4.794c-1.003-3.122-2.118-6.466-3.01-9.476
			c-0.892-2.676-1.226-5.463-3.79-6.354c-1.338-0.446-4.794-0.334-5.909-0.223C33.249,32.348,32.692,32.571,32.246,32.794
			L32.246,32.794z"/>
		<path style="fill:none;stroke:#187ABA;stroke-width:1.5;stroke-linecap:round;stroke-linejoin:round;stroke-miterlimit:10;" d="
			M62.569,60.331c-4.125,11.148-4.125,11.148-4.125,11.148c10.368-4.459,10.368-4.459,10.368-4.459l0,0
			c4.125,2.899,9.253,4.682,14.716,4.682c13.824,0,24.972-11.148,24.972-24.972S97.352,21.758,83.528,21.758
			S58.444,32.906,58.444,46.73C58.444,51.746,60.005,56.429,62.569,60.331"/>
		<path style="fill:none;stroke:#187ABA;stroke-width:1.5;stroke-linecap:round;stroke-linejoin:round;stroke-miterlimit:10;" d="
			M98.913,46.841c0,1.449-1.338,2.676-3.01,2.676c-1.561,0-2.899-1.226-2.899-2.676c0-1.561,1.338-2.787,2.899-2.787
			C97.575,44.054,98.913,45.28,98.913,46.841L98.913,46.841z M86.426,46.841c0,1.449-1.338,2.676-2.899,2.676
			c-1.672,0-2.899-1.226-2.899-2.676c0-1.561,1.226-2.787,2.899-2.787C85.089,44.054,86.426,45.28,86.426,46.841L86.426,46.841z
			 M73.94,46.841c0,1.449-1.338,2.676-2.899,2.676c-1.672,0-3.01-1.226-3.01-2.676c0-1.561,1.338-2.787,3.01-2.787
			C72.603,44.054,73.94,45.28,73.94,46.841L73.94,46.841z"/>
	</g>
</g>
<g id="Layer_1">
</g>
</svg>
