<svg id="Layer_1" data-name="Layer 1" xmlns="http://www.w3.org/2000/svg" viewBox="0 0 377.71 360.36"><defs><style>.cls-1{fill:#009ad9;}.cls-2{fill:none;}</style></defs><title>i-check-nb</title><g id="check"><path class="cls-1" d="M271.53,427.5H251.39a2.36,2.36,0,0,1-2.36-2.36V405a2.36,2.36,0,0,1,2.36-2.36h20.14a2.36,2.36,0,0,1,2.36,2.36v20.13A2.36,2.36,0,0,1,271.53,427.5Zm-17.77-4.73h15.41V407.37H253.76Zm148-5.35H294.24a2.36,2.36,0,0,1,0-4.73H401.77a2.36,2.36,0,1,1,0,4.73ZM271.53,397.51H251.39a2.36,2.36,0,0,1-2.36-2.36V375a2.36,2.36,0,0,1,2.36-2.36h20.14a2.36,2.36,0,0,1,2.36,2.36v20.15A2.36,2.36,0,0,1,271.53,397.51Zm-17.77-4.73h15.41V377.37H253.76Zm148-4.06H294.24a2.36,2.36,0,0,1,0-4.73H401.77a2.36,2.36,0,1,1,0,4.73Zm35.55-33.43H251.4a2.36,2.36,0,0,1,0-4.73H437.33a2.36,2.36,0,0,1,0,4.73Z" transform="translate(-111.08 -119.64)"/><path class="cls-1" d="M440.76,480H113.44a2.36,2.36,0,0,1-2.36-2.36V122a2.36,2.36,0,0,1,2.36-2.36H440.76a2.36,2.36,0,0,1,2.36,2.36v22.48h22.48a2.37,2.37,0,0,1,1.93,1c.51.72,50.41,72.6-5.13,150.81v158.2a2.36,2.36,0,0,1-2.36,2.36H443.13v20.78A2.36,2.36,0,0,1,440.76,480Zm-325-4.73H438.4V456.85H132.3a2.36,2.36,0,0,1-2.36-2.36v-159a2.36,2.36,0,0,1,2.36-2.36h12.63V146.89a2.46,2.46,0,0,1,0-.3,2.37,2.37,0,0,1,1.76-2h0a2.75,2.75,0,0,1,.63-.07H438.4V124.37H115.8Zm33.85-23.14h308V297.89h-308Zm-15,0h10.27V297.89H134.66Zm285-159h39.2c49.7-70.43,11.17-135.22,5.52-144H151.11c6.83,14.59,29.7,72.73-.23,144Zm-270-135.52V283.41c14.07-38,12.9-71.21,9.12-93.15A161.74,161.74,0,0,0,149.66,157.65Z" transform="translate(-111.08 -119.64)"/><path class="cls-1" d="M430.25,339.2a13.08,13.08,0,0,1-11.44-6.52,8.55,8.55,0,0,0-14.52-.17l-.1.2a13.28,13.28,0,0,1-22.83,0l-.1-.21a8.56,8.56,0,0,0-14.41,0,1.67,1.67,0,0,1-.1.2,13.28,13.28,0,0,1-22.83,0,2.4,2.4,0,0,1-.19-.43,8.56,8.56,0,0,0-14.37.42,13.27,13.27,0,0,1-22.85,0l-.1-.19a8.57,8.57,0,0,0-14.42,0l-.1.2a13.27,13.27,0,0,1-22.83,0l-.1-.19a8.56,8.56,0,0,0-14.52.19,2.36,2.36,0,1,1-4.11-2.34,13.28,13.28,0,0,1,22.83,0l.1.2a8.56,8.56,0,0,0,14.42,0l.1-.19a13.28,13.28,0,0,1,22.84,0l.1.2a8.55,8.55,0,0,0,14.51-.14,13.28,13.28,0,0,1,22.85-.06,2.24,2.24,0,0,1,.2.44,8.57,8.57,0,0,0,14.27-.21l.1-.19a13.27,13.27,0,0,1,22.83,0,2.33,2.33,0,0,1,.11.22,8.56,8.56,0,0,0,14.41,0l.1-.19a13.26,13.26,0,0,1,22.83,0,8.56,8.56,0,0,0,14.64.06,2.36,2.36,0,1,1,4.11,2.34A13.08,13.08,0,0,1,430.25,339.2Z" transform="translate(-111.08 -119.64)"/><rect class="cls-2" width="377.71" height="360.36"/><path class="cls-1" d="M197.62,440.71a2.36,2.36,0,0,1-2.36-2.36V422.06a2.36,2.36,0,0,1,4.73,0v16.28A2.36,2.36,0,0,1,197.62,440.71Zm0-116.29a2.36,2.36,0,0,1-2.36-2.36V305.77a2.36,2.36,0,0,1,4.73,0v16.28A2.36,2.36,0,0,1,197.62,324.42Z" transform="translate(-111.08 -119.64)"/><path class="cls-1" d="M198.37,424.52c-28.82,0-32.17-22.13-32.2-22.35a2.36,2.36,0,0,1,4.68-.64c.11.74,2.93,18.26,27.52,18.26A25,25,0,0,0,219.78,408c6.28-10.36-.43-24.33-10.38-30.4A50.14,50.14,0,0,0,193.64,371a40.89,40.89,0,0,1-13.28-5.49c-6.48-4.08-9.69-6.42-11.83-15-1.56-6.33-.81-12.24,2.16-17.1a21.78,21.78,0,0,1,12.83-9.52c11.47-2.71,18.17-2.48,27.59,1a22.94,22.94,0,0,1,14.45,15.29,2.36,2.36,0,0,1-4.6,1.08,18.2,18.2,0,0,0-11.47-11.93c-7.53-2.75-13.17-3.57-24.88-.8a17.05,17.05,0,0,0-9.88,7.38c-2.33,3.81-2.87,8.35-1.6,13.5,1.77,7.15,3.95,8.52,9.76,12.17a36.42,36.42,0,0,0,11.94,4.91,54.93,54.93,0,0,1,17,7.18c12.1,7.38,19.79,24,12,36.88A29.79,29.79,0,0,1,198.37,424.52Z" transform="translate(-111.08 -119.64)"/><rect class="cls-2" width="377.71" height="360.36"/></g></svg>