<svg id="Layer_1" data-name="Layer 1" xmlns="http://www.w3.org/2000/svg" xmlns:xlink="http://www.w3.org/1999/xlink" viewBox="0 0 360 360"><defs><style>.cls-1{fill:none;}.cls-2{clip-path:url(#clip-path);}.cls-3{fill:#fff;}</style><clipPath id="clip-path" transform="translate(-120 -120)"><rect class="cls-1" x="120" y="120" width="360" height="360"/></clipPath></defs><title>i-clock-nb-white</title><g id="white_clock" data-name="white clock"><g class="cls-2"><path class="cls-3" d="M301,480h-1c-99.24,0-180-80.75-180-180s80.75-180,180-180,180,80.75,180,180a179.24,179.24,0,0,1-53.11,128A177.38,177.38,0,0,1,301,480Zm-1-354.86c-96.41,0-174.86,78.44-174.86,174.86S203.59,474.86,300,474.86h1a172.27,172.27,0,0,0,122.28-50.5A174.14,174.14,0,0,0,474.86,300C474.86,203.58,396.41,125.14,300,125.14Zm0,335.92c-88.81,0-161.06-72.25-161.06-161.07S211.19,138.93,300,138.93,461.06,211.19,461.06,300,388.81,461.07,300,461.07Zm0-317C214,144.08,144.08,214,144.08,300S214,455.92,300,455.92,455.92,386,455.92,300,386,144.08,300,144.08Zm2.57,296h-5.14V428.74h5.14Zm65-17.59-5.95-9.73,4.39-2.69,5.95,9.73Zm-135.12-.09-4.49-2.5,5.41-9.73,4.49,2.5ZM419.38,372l-9.74-5.41,2.5-4.5,9.74,5.41Zm-239.3,0-2.5-4.5,9.74-5.41,2.5,4.5Zm206.77-16.81L308,308a11.25,11.25,0,1,1-8.68-19.19l15-80.15,5.06.94-14.94,80a11.34,11.34,0,0,1,6.3,14l78.84,47.2ZM300,293.92a6.08,6.08,0,1,0,6.08,6.08,6.63,6.63,0,0,0-4.85-6.08Zm139.56,8.65H428.2v-5.14h11.36Zm-267.77,0H160.44v-5.14H171.8Zm240.44-64.21L409.55,234l9.74-6,2.69,4.39Zm-225,0-9.74-6,2.69-4.39,9.74,6ZM366,190.45l-4.39-2.68,5.95-9.74,4.39,2.68Zm-132.64-.09L228,180.62l4.49-2.5,5.41,9.74Zm69.19-18.56h-5.14V160.44h5.14Z" transform="translate(-120 -120)"/></g></g></svg>