<svg id="Layer_1" data-name="Layer 1" xmlns="http://www.w3.org/2000/svg" xmlns:xlink="http://www.w3.org/1999/xlink" viewBox="0 0 438.03 397.29"><defs><style>.cls-1{fill:none;}.cls-2{clip-path:url(#clip-path);}.cls-3{fill:#0f8ec7;}</style><clipPath id="clip-path" transform="translate(-59.23 -101.71)"><rect class="cls-1" x="59.23" y="101.71" width="438.03" height="397.29"/></clipPath></defs><title>i-connected-nb</title><g class="cls-2"><path class="cls-3" d="M385.1,499a42.84,42.84,0,0,1-42.93-42.64,42.36,42.36,0,0,1,12.26-29.81l-36.72-59.34a77.58,77.58,0,0,1-76.54-.05l-36.72,59.36a42.37,42.37,0,0,1,12.29,29.84,42.85,42.85,0,1,1-16.43-33.53l36.22-58.54a76.58,76.58,0,0,1-34.21-61H145.25v-5.45h57.06a76.61,76.61,0,0,1,34.78-61.36L200.64,177.6a42.56,42.56,0,1,1,16.09-33.26,42.34,42.34,0,0,1-12,29.53l37,59.82a77.58,77.58,0,0,1,75.35-.05l37-59.81a42.34,42.34,0,0,1-12-29.49,42.85,42.85,0,1,1,16.05,33.22l-36.44,58.89a76.61,76.61,0,0,1,34.88,61.41h54.85a42.61,42.61,0,1,1,0,5.45H356.66a76.6,76.6,0,0,1-34.31,61l36.21,58.51A42.75,42.75,0,1,1,385.1,499Zm-24.18-14.25a37.61,37.61,0,0,0,48.34,0,26.91,26.91,0,0,0-48.34,0Zm-211.29,0a37.62,37.62,0,0,0,48.34,0,26.91,26.91,0,0,0-48.34,0Zm24.16-65.59a37.37,37.37,0,0,0-37.47,37.19,36.87,36.87,0,0,0,9.23,24.42A32.24,32.24,0,0,1,166.83,465a18.31,18.31,0,1,1,14,0,32,32,0,0,1,21.25,15.8,36.87,36.87,0,0,0,9.22-24.41A37.38,37.38,0,0,0,173.81,419.17Zm211.3,0a37.38,37.38,0,0,0-37.48,37.19,36.85,36.85,0,0,0,9.23,24.41A32.33,32.33,0,0,1,378.13,465a18.31,18.31,0,1,1,14,0,32,32,0,0,1,21.24,15.79,36.88,36.88,0,0,0,9.22-24.4A37.37,37.37,0,0,0,385.1,419.17Zm0,16.23A12.75,12.75,0,1,0,398,448.15,12.82,12.82,0,0,0,385.1,435.4Zm-211.3,0a12.75,12.75,0,1,0,12.86,12.74A12.82,12.82,0,0,0,173.81,435.4Zm55.65-83.78a72,72,0,0,0,99.2.82,55.13,55.13,0,0,0-99.2-.82Zm49.38-36.11a60.12,60.12,0,0,1,53.87,32.81,70.69,70.69,0,0,0,18.54-47.74c0-39.28-32.2-71.24-71.78-71.24s-71.76,32-71.76,71.24a70.66,70.66,0,0,0,17.75,46.86A60.43,60.43,0,0,1,278.84,315.52ZM430.18,329a37.62,37.62,0,0,0,48.34,0,26.91,26.91,0,0,0-48.34,0Zm24.16-65.58a37.37,37.37,0,0,0-37.47,37.19A36.87,36.87,0,0,0,426.1,325a32.25,32.25,0,0,1,21.28-15.8,18.31,18.31,0,1,1,13.94,0A32,32,0,0,1,482.59,325a36.85,36.85,0,0,0,9.23-24.4A37.38,37.38,0,0,0,454.34,263.41Zm0,16.21a12.75,12.75,0,1,0,12.85,12.75A12.82,12.82,0,0,0,454.34,279.62ZM360.92,172.73a37.61,37.61,0,0,0,48.34,0,26.91,26.91,0,0,0-48.34,0Zm-211.28,0a37.63,37.63,0,0,0,48.34,0,26.91,26.91,0,0,0-48.34,0Zm24.16-65.58a37.37,37.37,0,0,0-37.47,37.18,36.86,36.86,0,0,0,9.23,24.42A32.24,32.24,0,0,1,166.84,153a18.31,18.31,0,1,1,14,0,32,32,0,0,1,21.26,15.8,36.87,36.87,0,0,0,9.22-24.41A37.37,37.37,0,0,0,173.81,107.16Zm211.3,0a37.37,37.37,0,0,0-37.48,37.18,36.86,36.86,0,0,0,9.23,24.41A32.34,32.34,0,0,1,378.14,153a18.31,18.31,0,1,1,13.95,0,32,32,0,0,1,21.25,15.79,36.88,36.88,0,0,0,9.22-24.4A37.36,37.36,0,0,0,385.1,107.16Zm0,16.21A12.75,12.75,0,1,0,398,136.13,12.82,12.82,0,0,0,385.1,123.38Zm-211.3,0a12.75,12.75,0,1,0,12.86,12.75A12.82,12.82,0,0,0,173.81,123.38ZM102.16,343.23a42.64,42.64,0,1,1,42.92-42.63A42.83,42.83,0,0,1,102.16,343.23ZM78,329a37.62,37.62,0,0,0,48.33,0A26.9,26.9,0,0,0,78,329Zm24.16-65.58A37.37,37.37,0,0,0,64.69,300.6,36.85,36.85,0,0,0,73.92,325a32.25,32.25,0,0,1,21.28-15.8,18.32,18.32,0,1,1,13.94,0A32,32,0,0,1,130.4,325a36.86,36.86,0,0,0,9.23-24.41A37.37,37.37,0,0,0,102.16,263.41Zm0,16.21A12.75,12.75,0,1,0,115,292.38,12.82,12.82,0,0,0,102.16,279.62Zm176.68,34.84A32.95,32.95,0,1,1,312,281.51,33.09,33.09,0,0,1,278.84,314.46Zm0-60.44a27.49,27.49,0,1,0,27.7,27.49A27.62,27.62,0,0,0,278.84,254Z" transform="translate(-59.23 -101.71)"/></g></svg>