<?xml version="1.0" encoding="utf-8"?>
<!-- Generator: Adobe Illustrator 15.1.0, SVG Export Plug-In . SVG Version: 6.00 Build 0)  -->
<!DOCTYPE svg PUBLIC "-//W3C//DTD SVG 1.1//EN" "http://www.w3.org/Graphics/SVG/1.1/DTD/svg11.dtd">
<svg version="1.1" id="レイヤー_1" xmlns="http://www.w3.org/2000/svg" xmlns:xlink="http://www.w3.org/1999/xlink" x="0px"
	 y="0px" width="100px" height="100px" viewBox="0 0 100 100" enable-background="new 0 0 100 100" xml:space="preserve">
<g>
	<path fill="none" stroke="#0F8EC7" stroke-miterlimit="10" d="M76.979,60.32c0,2.111-1.712,3.822-3.825,3.822
		c-2.11,0-3.822-1.711-3.822-3.822c0-2.113,1.712-3.824,3.822-3.824C75.267,56.496,76.979,58.207,76.979,60.32z M61.859,49.813
		c0,0.747-0.653,1.402-1.4,1.402c-0.748,0-1.308-0.655-1.308-1.402s0.56-1.307,1.308-1.307
		C61.206,48.506,61.859,49.066,61.859,49.813z M16.384,16.569l7.938,6.537l8.03-6.537 M16.384,34.872l7.938-6.443l8.03,6.443
		 M12.273,19.836l8.406,6.07l-8.686,5.696 M36.46,19.836l-8.404,6.07l8.684,5.696 M60.926,16.569v18.303 M69.331,16.569v18.303
		 M30.297,51.494v8.873H19.465 M81.75,72.691l3.734-2.893 M85.111,69.424H60.458V51.307h24.653V69.424z M60.459,69.424v16.809
		 M85.111,54.949H89.5v17.742h-7.75v-3.268 M20.866,49.813c0,0.747-0.654,1.402-1.401,1.402s-1.308-0.655-1.308-1.402
		s0.561-1.307,1.308-1.307S20.866,49.066,20.866,49.813z M17.971,86.232h3.175 M40.756,72.691l3.735-2.893 M44.117,69.424H19.465
		V51.307h24.652V69.424z M19.465,69.424v16.809 M44.117,54.949h4.39v17.742h-7.751v-3.268 M54.296,15.168
		c0,0.747-0.56,1.307-1.308,1.307c-0.747,0-1.4-0.56-1.4-1.307c0-0.748,0.653-1.401,1.4-1.401
		C53.736,13.767,54.296,14.42,54.296,15.168z M51.494,51.494h3.082 M74.187,37.954l3.735-2.895 M77.548,34.685h-24.56V16.569h24.56
		V34.685z M52.988,34.685v16.809 M77.548,20.21h4.482v17.743h-7.844v-3.269 M13.302,15.168c0,0.747-0.561,1.307-1.308,1.307
		c-0.746,0-1.4-0.56-1.4-1.307c0-0.748,0.654-1.401,1.4-1.401C12.741,13.767,13.302,14.42,13.302,15.168z M10.5,51.494h3.082
		 M33.285,37.954l3.642-2.895 M36.554,34.685h-24.56V16.569h24.56V34.685z M11.994,34.685v16.809 M36.554,20.21h4.481v17.743h-7.75
		v-3.269 M59.059,86.232h3.175"/>
</g>
</svg>
