<svg id="Layer_1" data-name="Layer 1" xmlns="http://www.w3.org/2000/svg" xmlns:xlink="http://www.w3.org/1999/xlink" viewBox="0 0 600 600"><defs><style>.cls-1{fill:none;}.cls-2{clip-path:url(#clip-path);}.cls-3{fill:#0f8ec7;}</style><clipPath id="clip-path"><rect class="cls-1" x="2" y="119.06" width="597" height="361.94"/></clipPath></defs><title>Artboard 1</title><g id="china"><g class="cls-2"><path class="cls-3" d="M387.57,481H240.94a2.59,2.59,0,0,1-2.59-2.59c0-149.4-135.48-180.18-157.25-184.15v23.18a2.59,2.59,0,1,1-5.17,0V149.13a2.59,2.59,0,0,1,2.59-2.59h23.69a2.59,2.59,0,0,1,2.59,2.59v15.46h21.9V149.13a2.59,2.59,0,0,1,2.59-2.59h28.2a2.59,2.59,0,0,1,2.59,2.59v15.46H182V149.13a2.59,2.59,0,0,1,2.59-2.59h25.94a2.59,2.59,0,0,1,2.59,2.59v53.48H236c15.42-9.19,32.15-18.16,49.74-26.66A2.59,2.59,0,1,1,288,180.6h0c-17.68,8.55-34.49,17.57-49.95,26.81a2.59,2.59,0,0,1-1.33.37H213.07v45.91c45.54-23.09,76.12-23.79,100.73-24.35,5.83-.13,11.36-.26,16.78-.65A355.62,355.62,0,0,1,381,224.95V123.78a2.59,2.59,0,0,1,5.17,0v12.64a2.5,2.5,0,0,1,.68-.32C423,125,447.6,119.1,474,119.1a79.94,79.94,0,0,1,18.43,2.14,2.77,2.77,0,0,1,1.33.33c17.34,4.41,33.44,14.69,47.33,30.35,16.54,18.64,29.58,44.74,36.84,73.69h18.52a2.59,2.59,0,0,1,.32,5.17H575.87a2.59,2.59,0,0,1-2.51-2c-10-41.68-36-89.41-78.3-101.58V130q0,3.91-.19,7.68C492,242.69,455.48,293.8,383.54,293.8c-48.08,0-80.64,17-90.43,22.9q3.61,1.93,7.22,4c41,24,89.82,70.8,89.82,157.66a2.59,2.59,0,0,1-2.54,2.64Zm-144.05-5.17H385c-1.71-147.78-149.25-177.3-171.89-181V317.4a2.59,2.59,0,1,1-5.17,0V190.05H81.11v99C100.76,292.47,242,322.66,243.52,475.83ZM214.72,289.9a265.66,265.66,0,0,1,73.06,24c5.6-3.74,40.3-25.3,95.76-25.3,60.4,0,93.94-36.31,103.47-113.38A81.33,81.33,0,0,1,466.29,205c-32.24,29.2-79.43,25.4-82.87,25.08-67,0-109.9,17-134.06,31.29C229.7,273,218.91,284.74,214.72,289.9Zm-1.65-30.69v24.53c9.83-11.24,35.76-35.19,87-48.8-22.41,1.07-48.66,4.87-85.91,24A2.56,2.56,0,0,1,213.07,259.21ZM386.13,225.1c10,.46,49.64.63,76.71-23.92,16.55-15,25.58-36.57,26.87-64.15q.14-5.47.16-11.15a76.16,76.16,0,0,0-12.87-1.6c-.45,57.09-76.81,74-90.87,76.6Zm0-84.39v54.91A176,176,0,0,0,428,181.93c28.93-14.1,43.69-33.51,43.88-57.69-25,.32-48.82,6.2-83.5,16.8a2.59,2.59,0,0,1-2.25-.32Zm-305,44.17H207.9V151.71H187.13v15.46a2.59,2.59,0,0,1-2.59,2.59H157.48a2.59,2.59,0,0,1-2.59-2.59V151.71h-23v15.46a2.59,2.59,0,0,1-2.59,2.59H102.21a2.59,2.59,0,0,1-2.59-2.59V151.71H81.11Z"/><path class="cls-3" d="M180.19,319.93H151a2.59,2.59,0,0,1,0-5.17h24V256.58c0-23-13.72-41.66-30.59-41.66s-30.59,18.69-30.59,41.66V298a2.59,2.59,0,1,1-5.17,0V256.58c0-25.82,16-46.83,35.76-46.83s35.76,21,35.76,46.83Z"/><path class="cls-3" d="M240.9,481a2.59,2.59,0,0,1-2.59-2.59c0-17.08-6.27-31.88-18.63-44-41.83-40.9-140.1-39.19-141.09-39.15a2.53,2.53,0,0,1-1.87-.74,2.58,2.58,0,0,1-.78-1.85V291.22a2.58,2.58,0,0,1,2.58-2.58l.34,0c1.65.22,164.62,23.64,164.62,189.76A2.59,2.59,0,0,1,240.9,481ZM81.11,390.11a366.31,366.31,0,0,1,53.13,4.19c40.82,6.33,70.79,18.59,89.05,36.45a68.34,68.34,0,0,1,13,17.35c-16.8-123.35-135-150.1-155.18-153.83Zm206-153.4a2.59,2.59,0,0,1-2.59-2.59V123.78a2.59,2.59,0,0,1,2.59-2.59H304.4a2.59,2.59,0,0,1,2.59,2.59v10.59h14.59V123.78a2.59,2.59,0,0,1,2.59-2.59h20.58a2.59,2.59,0,0,1,2.59,2.59v10.59h14.59V123.78a2.59,2.59,0,0,1,2.59-2.59h18.94a2.59,2.59,0,0,1,2.59,2.59V227.53a2.59,2.59,0,0,1-5.17,0V154.36H289.71v79.76a2.59,2.59,0,0,1-2.59,2.59h0Zm2.59-87.52h91.16V126.37H367.1V137a2.59,2.59,0,0,1-2.59,2.59H344.76a2.59,2.59,0,0,1-2.59-2.59V126.37H326.76V137a2.59,2.59,0,0,1-2.59,2.59H304.41a2.59,2.59,0,0,1-2.59-2.59V126.37H289.71Z"/><path class="cls-3" d="M359.56,230a2.59,2.59,0,0,1-2.59-2.59V194.13a21.61,21.61,0,0,0-43.22,0h0v33.24a2.59,2.59,0,1,1-5.17,0V194.13a26.78,26.78,0,1,1,53.56,0v33.26a2.59,2.59,0,0,1-2.55,2.63Z"/><path class="cls-3" d="M353,480.47a2.59,2.59,0,0,1-2.59-2.59,169.85,169.85,0,0,0-1.59-23.53h-57.7a2.59,2.59,0,0,1,0-5.17H348a146.92,146.92,0,0,0-5.13-20.67h-91a2.59,2.59,0,0,1,0-5.17H341.1a139.51,139.51,0,0,0-20-36.19H272.65a2.59,2.59,0,1,1-.32-5.17H317c-3.14-3.76-6.43-7.3-9.81-10.65h-70.5a2.59,2.59,0,0,1,0-5.17h65c-39-35.11-87.75-45.38-91.48-46.11H177.75a2.59,2.59,0,0,1,0-5.17h30.12V291.23a2.59,2.59,0,1,1,5.17,0v24.13c10.64,2.38,58.91,14.83,96.36,50.92a2.59,2.59,0,0,1,1.65,1.61,156.83,156.83,0,0,1,12.75,14.25,2.59,2.59,0,0,1,1.67,2.15,145.6,145.6,0,0,1,28.12,66.79,2.62,2.62,0,0,1,.09.59,175,175,0,0,1,1.92,26.21,2.59,2.59,0,0,1-2.59,2.59Zm-76.73-69.32H229.45a2.59,2.59,0,0,1,0-5.17h46.84a2.59,2.59,0,0,1,0,5.17ZM4.59,379.61H4.24A2.59,2.59,0,0,1,2,376.72v0c.08-.64,9.19-63.56,76.47-63.56a2.59,2.59,0,0,1,0,5.17c-62.69,0-71,56.66-71.35,59.07A2.59,2.59,0,0,1,4.59,379.61Zm526.94-4.49h-57.2a2.59,2.59,0,0,1-2.59-2.59,13.39,13.39,0,0,0-4.53-10.29c-12.25-11.37-44.07-9.15-44.39-9.12h-29.9a2.59,2.59,0,0,1,0-5.17h29.7c1.21-.1,34.22-2.39,48.1,10.5a18.49,18.49,0,0,1,6,11.5h54.77a2.59,2.59,0,0,1,.32,5.17h-.28ZM225.69,347.73h-37.4a2.59,2.59,0,0,1,0-5.17h37.4a2.59,2.59,0,1,1,.32,5.17Zm-15.23-66.58H193.78a2.59,2.59,0,1,1-.32-5.17h17a2.59,2.59,0,1,1,.32,5.17h-.32Zm0-13.68H188.29a2.59,2.59,0,0,1,0-5.17h22.18a2.59,2.59,0,0,1,0,5.17ZM91.59,242.66H78.49a2.59,2.59,0,0,1,0-5.17h13.1a2.59,2.59,0,0,1,0,5.17Zm6.49-17.76H78.49a2.59,2.59,0,1,1-.32-5.17H98.08a2.59,2.59,0,1,1,.32,5.17Zm112.38-6.71H188.29a2.59,2.59,0,0,1,0-5.17h22.18a2.59,2.59,0,0,1,0,5.17Zm55.93-10.4h-29.7a2.59,2.59,0,0,1,0-5.17h29.7a2.59,2.59,0,1,1,.32,5.17ZM301,198.13H287.16a2.59,2.59,0,1,1-.32-5.17H301a2.59,2.59,0,1,1,.32,5.17Zm82.48-30.79H359.63a2.59,2.59,0,1,1-.32-5.17h24.2a2.59,2.59,0,0,1,0,5.17Z"/></g></g></svg>