<svg id="Layer_1" data-name="Layer 1" xmlns="http://www.w3.org/2000/svg" xmlns:xlink="http://www.w3.org/1999/xlink" viewBox="0 0 400.37 336.36"><defs><style>.cls-1,.cls-2{fill:none;}.cls-2{clip-path:url(#clip-path);}.cls-3{clip-path:url(#clip-path-2);}.cls-4{fill:#009ad9;}</style><clipPath id="clip-path"><rect class="cls-1" x="73.63" y="121.57" width="400.37" height="336.36"/></clipPath><clipPath id="clip-path-2" transform="translate(-73.63 -121.57)"><rect class="cls-2" x="73.63" y="121.57" width="400.37" height="336.36"/></clipPath></defs><title>i-news-nb</title><g id="news"><g class="cls-3"><path class="cls-4" d="M413.35,457.93H134.26a60.7,60.7,0,0,1-60.63-60.64V130.54a9,9,0,0,1,9-9H410.13a9,9,0,0,1,9,9v55.62H465a9,9,0,0,1,9,9V397.29A60.71,60.71,0,0,1,413.35,457.93ZM78.65,381.68v15.61a55.68,55.68,0,0,0,55.61,55.62H413.35A55.69,55.69,0,0,0,469,397.29V195.12a4,4,0,0,0-3.94-3.94H419.09V405.91a2.51,2.51,0,0,1-5,0V130.54a4,4,0,0,0-3.94-3.94H82.6a4,4,0,0,0-4,3.94Zm149,25H123.78a9,9,0,0,1-8.95-8.95V295.21a9,9,0,0,1,8.95-8.94H227.64a9,9,0,0,1,8.94,8.94V397.73A9,9,0,0,1,227.64,406.68ZM123.78,291.29a3.93,3.93,0,0,0-3.93,3.92V397.73a3.93,3.93,0,0,0,3.93,3.93H227.64a3.93,3.93,0,0,0,3.92-3.93V295.21a3.92,3.92,0,0,0-3.92-3.92ZM378.34,394H258.24a2.51,2.51,0,0,1,0-5H378.34a2.51,2.51,0,0,1,0,5Zm0-32.17h-57.9a2.51,2.51,0,1,1,0-5h57.9a2.51,2.51,0,0,1,0,5Zm-77.19,0H258.24a2.51,2.51,0,0,1,0-5h42.92a2.51,2.51,0,0,1,0,5Zm77.19-32.16H336.23a2.51,2.51,0,0,1,0-5h42.11a2.51,2.51,0,0,1,0,5Zm-64.32,0H258.24a2.51,2.51,0,0,1,0-5H314a2.51,2.51,0,0,1,0,5Zm64.32-32.17H258.24a2.51,2.51,0,0,1,0-5H378.34a2.51,2.51,0,1,1,0,5Zm0-45H115.91a2.51,2.51,0,0,1,0-5H378.34a2.51,2.51,0,0,1,0,5Z" transform="translate(-73.63 -121.57)"/><polygon class="cls-4" points="56.61 103.1 49.76 103.1 49.76 46.82 56.45 46.34 85.04 91.02 85.04 46.58 91.87 46.58 91.87 102.86 85.19 103.34 56.61 58.65 56.61 103.1"/><polygon class="cls-4" points="116.27 46.58 151.53 46.58 151.04 52.86 123.19 52.86 123.19 71.94 147.26 71.94 146.86 78.31 123.19 78.31 123.19 96.74 151.53 96.74 151.04 103.09 116.27 103.09 116.27 46.58"/><polygon class="cls-4" points="243.23 46.82 227.45 103.09 219 103.09 206.6 57.7 194.21 103.09 185.5 103.09 169.73 46.82 176.81 46.34 190.01 96.25 202.81 46.82 210.54 46.34 223.43 96.25 236.56 46.34 243.23 46.82"/><path class="cls-4" d="M336.26,216a39.47,39.47,0,0,0,15.38,3.15q5.39,0,8.53-2.5a8.4,8.4,0,0,0,3.14-7,6.71,6.71,0,0,0-3.1-5.52q-3.1-2.28-11.79-5.75-7.25-2.9-11-6.8a12.76,12.76,0,0,1-3.74-9.14q0-7.32,5-11.19t13.93-3.86a40.79,40.79,0,0,1,16,3.13l-1.29,6.28a38.38,38.38,0,0,0-15.21-3.13q-5.23,0-8.25,2.42a7.91,7.91,0,0,0-3,6.52v.4c.05,1.94,1.14,3.67,3.26,5.2s6,3.39,11.72,5.59q14.73,5.8,14.73,16,0,7.5-5.07,11.6t-14.41,4.11A40.61,40.61,0,0,1,335,222.26Z" transform="translate(-73.63 -121.57)"/></g></g></svg>