<svg id="Layer_1" data-name="Layer 1" xmlns="http://www.w3.org/2000/svg" xmlns:xlink="http://www.w3.org/1999/xlink" viewBox="0 0 285.41 392"><defs><style>.cls-1{fill:none;}.cls-2{clip-path:url(#clip-path);}.cls-3{fill:#0f8ec7;}</style><clipPath id="clip-path" transform="translate(-130.34 -94)"><rect class="cls-1" x="130.34" y="94" width="285.41" height="392"/></clipPath></defs><title>i-page-nb</title><g class="cls-2"><path class="cls-3" d="M381.43,486H146.58a16.47,16.47,0,0,1-16.24-16.66v-323a16.47,16.47,0,0,1,16.24-16.65h230V97.06A3.25,3.25,0,0,1,379.49,94h4.26c17.65,0,32,14.77,32,32.92V439.13a2.78,2.78,0,0,1-.06.57q.06,1,.06,2.11v8.89C415.75,470.16,400.35,486,381.43,486Zm-3.23-5.35h3.23c16,0,29-13.44,29-30V441.8c0-16.52-13-30-29-30h-2.16a2.67,2.67,0,0,1-2.67-2.67c0-.07,0-.13,0-.19V135h-230a11.12,11.12,0,0,0-10.89,11.31v323a11.12,11.12,0,0,0,10.89,11.31Zm3.75-74.16a34.14,34.14,0,0,1,28.46,16.4v-296c0-15.2-12-27.57-26.66-27.57h-1.8v31.94a2.68,2.68,0,0,1,0,2.09Zm-44.41-113.7H188.89a2.67,2.67,0,0,1,0-5.35H337.54a2.67,2.67,0,1,1,0,5.35Zm0-34.52H188.89a2.67,2.67,0,0,1,0-5.35H337.54a2.67,2.67,0,1,1,0,5.35Zm0-34.51H188.89a2.67,2.67,0,0,1,0-5.35H337.54a2.67,2.67,0,1,1,0,5.35Z" transform="translate(-130.34 -94)"/></g></svg>