<svg id="Layer_1" data-name="Layer 1" xmlns="http://www.w3.org/2000/svg" xmlns:xlink="http://www.w3.org/1999/xlink" viewBox="0 0 402.01 298"><defs><style>.cls-1{fill:none;}.cls-2{clip-path:url(#clip-path);}.cls-3{fill:#fff;}</style><clipPath id="clip-path" transform="translate(-87.99 -100)"><rect class="cls-1" x="87.99" y="100" width="402.01" height="298"/></clipPath></defs><title>i-shake-nb-white</title><g id="handshake_white" data-name="handshake white"><g class="cls-2"><path class="cls-3" d="M264.4,398a15,15,0,0,1-10.8-4.57,15.8,15.8,0,0,1-4.28-13.17,16.35,16.35,0,0,1-4.19.55h0a16.4,16.4,0,0,1-11.78-5,17.25,17.25,0,0,1-4.46-15.65,21.54,21.54,0,0,1-3.49.37,16.4,16.4,0,0,1-11.78-5,17.26,17.26,0,0,1-4.29-16.38,14.72,14.72,0,0,1-1.79.11,15,15,0,0,1-10.81-4.59,15.66,15.66,0,0,1-4.33-9.36H177.15a7,7,0,0,1-6.81,5.47H140.61a7.06,7.06,0,0,1-7-7.12v-4.46H90.79A2.79,2.79,0,0,1,88,316.42V194.88a2.79,2.79,0,0,1,2.79-2.79h42.83v-5.87a7.06,7.06,0,0,1,7-7.12h29.74a7.07,7.07,0,0,1,7,7.12v5.87H288.46c15.4-12.56,30.69-15,48.52-8.1l21.52,8.36h42.14v-6.13a7.07,7.07,0,0,1,7-7.12h29.73a7.06,7.06,0,0,1,7,7.12v5.87h42.83a2.79,2.79,0,0,1,2.79,2.79V316.42a2.79,2.79,0,0,1-2.79,2.79H444.38v4.46a7.06,7.06,0,0,1-7,7.12H407.65a7.07,7.07,0,0,1-7-7.12v-2.37H372.42a16.59,16.59,0,0,1-4.62,10.34,16.12,16.12,0,0,1-11.46,4.82h0a19.84,19.84,0,0,1-4.88,19.21,18.86,18.86,0,0,1-18.68,5,18.28,18.28,0,0,1-4.92,15.35,17.23,17.23,0,0,1-15.18,5A16.44,16.44,0,0,1,308,393a15.82,15.82,0,0,1-22.8,0l-5.1-4.38-.11-.1-4.77,4.89a15,15,0,0,1-10.8,4.58ZM275,361.53h0a9.44,9.44,0,0,0-6.79,2.9L257.6,375.34a10.23,10.23,0,0,0,0,14.18,9.69,9.69,0,0,0,13.61,0l10.64-10.91a10.32,10.32,0,0,0,0-14.18A9.52,9.52,0,0,0,275,361.53Zm8.86,23L289,389a10.43,10.43,0,0,0,7.56,3.33h0a10.27,10.27,0,0,0,7.41-3.16A11,11,0,0,0,306.53,378a2.79,2.79,0,0,1,3.87-3.36,11.63,11.63,0,0,0,13.44-2.42,12.69,12.69,0,0,0,1.54-15.65,2.79,2.79,0,0,1,4.1-3.69,13.31,13.31,0,0,0,18-1.06,14.49,14.49,0,0,0,1.89-17.5,2.79,2.79,0,0,1,3.38-4.07,10.25,10.25,0,0,0,11.08-2.47,11,11,0,0,0,3.07-8.38,2.61,2.61,0,0,1-.11-.53,11,11,0,0,0-2.71-6.22l-.25-.27L295.23,241l-12.48,12.83c-11.13,11.43-23,17.47-34.18,17.48h0c-8.74,0-16.72-3.63-23.73-10.8a2.79,2.79,0,0,1,0-3.9l56-57.52q.73-.74,1.45-1.46H177.34V319.74h15.44a15.54,15.54,0,0,1,3.92-7l10.65-10.93a15,15,0,0,1,10.8-4.57h0a14.91,14.91,0,0,1,10.76,4.58,15.83,15.83,0,0,1,4.27,13.13,16.41,16.41,0,0,1,4-.49h0a16.29,16.29,0,0,1,11.76,5,17.23,17.23,0,0,1,4.46,15.62,16.41,16.41,0,0,1,3.5-.37,16.65,16.65,0,0,1,11.78,5A17.24,17.24,0,0,1,273,356.08c.68-.09,1.42-.09,2.07-.14a15.06,15.06,0,0,1,10.83,4.58v0a16,16,0,0,1,0,22Zm-27-44.25a10.75,10.75,0,0,0-7.77,3.32l-11.81,12.12a11.68,11.68,0,0,0,0,16.19,10.86,10.86,0,0,0,7.79,3.31h0a10.81,10.81,0,0,0,7.77-3.32l11.78-12.12a11.63,11.63,0,0,0,0-16.17h0a10.73,10.73,0,0,0-7.76-3.32ZM237.17,320a10.79,10.79,0,0,0-7.78,3.32l-11.8,12.12a11.65,11.65,0,0,0,0,16.18,10.86,10.86,0,0,0,7.79,3.31h0a10.79,10.79,0,0,0,7.76-3.31l11.79-12.12a11.65,11.65,0,0,0,0-16.18h0a10.74,10.74,0,0,0-7.75-3.31Zm-19-17.23a9.43,9.43,0,0,0-6.8,2.89L200.7,316.61a10.25,10.25,0,0,0,0,14.18,9.45,9.45,0,0,0,6.8,2.9h0a9.41,9.41,0,0,0,6.78-2.9l10.62-10.9a10.28,10.28,0,0,0,0-14.21h0a9.36,9.36,0,0,0-6.76-2.88ZM407.65,184.68a1.5,1.5,0,0,0-1.42,1.53V323.68a1.48,1.48,0,0,0,1.42,1.53h29.73a1.47,1.47,0,0,0,1.4-1.53V186.21a1.49,1.49,0,0,0-1.4-1.53ZM139.2,316.42v7.26a1.49,1.49,0,0,0,1.4,1.53h29.74a1.49,1.49,0,0,0,1.41-1.53V186.21a1.49,1.49,0,0,0-1.41-1.53H140.61a1.49,1.49,0,0,0-1.4,1.53Zm232.71-.7h28.73V197.93H358a2.79,2.79,0,0,1-1-.19l-22-8.54c-13.15-5.11-29.39-7.46-50.14,13.84l-54,55.5c5.4,4.8,11.37,7.23,17.76,7.23h0c9.69,0,20.13-5.47,30.18-15.79L292,236.32a3,3,0,0,1,.28-.33l12.33-12.67a2.79,2.79,0,1,1,4,3.9L300,236.06l.17.17,67.62,72.23.23.23A16.33,16.33,0,0,1,371.92,315.72Zm72.46-2.09h40v-116h-40Zm-350.8,0h40v-116h-40ZM464.4,230.4A10.43,10.43,0,1,1,474.63,220,10.34,10.34,0,0,1,464.4,230.4Zm0-15.26A4.84,4.84,0,1,0,469,220,4.75,4.75,0,0,0,464.4,215.13ZM113.6,230.4A10.43,10.43,0,1,1,123.83,220,10.34,10.34,0,0,1,113.6,230.4Zm0-15.26a4.84,4.84,0,1,0,4.64,4.85A4.75,4.75,0,0,0,113.6,215.13Zm215.17-60.24a2.79,2.79,0,0,1-2.46-4.12l17-31.54a2.79,2.79,0,0,1,4.92,2.65l-17,31.54A2.79,2.79,0,0,1,328.77,154.89Zm-89.53,0a2.79,2.79,0,0,1-2.4-1.37L218.14,122a2.79,2.79,0,0,1,4.81-2.85l18.7,31.54a2.79,2.79,0,0,1-2.4,4.22Zm43.94-.14a2.79,2.79,0,0,1-2.79-2.79V102.79a2.79,2.79,0,0,1,5.59,0V152A2.79,2.79,0,0,1,283.18,154.75Z" transform="translate(-87.99 -100)"/></g></g></svg>