<?xml version="1.0" encoding="utf-8"?>
<!-- Generator: Adobe Illustrator 15.1.0, SVG Export Plug-In . SVG Version: 6.00 Build 0)  -->
<!DOCTYPE svg PUBLIC "-//W3C//DTD SVG 1.1//EN" "http://www.w3.org/Graphics/SVG/1.1/DTD/svg11.dtd">
<svg version="1.1" id="レイヤー_1" xmlns="http://www.w3.org/2000/svg" xmlns:xlink="http://www.w3.org/1999/xlink" x="0px"
	 y="0px" width="100px" height="100px" viewBox="0 0 100 100" enable-background="new 0 0 100 100" xml:space="preserve">
<g>
	<path fill="none" stroke="#0F8EC7" stroke-linecap="round" stroke-linejoin="round" stroke-miterlimit="10" d="M51.206,47.527
		l2.801-2.813 M11.853,43.554c0-0.958-0.745-1.712-1.698-1.712c-0.924,0-1.669,0.754-1.669,1.712c0,0.928,0.745,1.682,1.669,1.682
		C11.107,45.235,11.853,44.481,11.853,43.554z M15.338,64.987H5V37.955h10.338V64.987z M24.007,66.584
		c0,0.521-0.417,0.957-0.953,0.957h-6.763c-0.506,0-0.953-0.436-0.953-0.957V36.041c0-0.522,0.447-0.957,0.953-0.957h6.763
		c0.536,0,0.953,0.435,0.953,0.957V66.584z M88.147,43.554c0-0.958,0.744-1.712,1.669-1.712c0.924,0,1.698,0.754,1.698,1.712
		c0,0.928-0.774,1.682-1.698,1.682C88.892,45.235,88.147,44.481,88.147,43.554z M84.632,64.987H95V37.955H84.632V64.987z
		 M75.992,66.584c0,0.521,0.418,0.957,0.954,0.957h6.733c0.535,0,0.952-0.436,0.952-0.957V36.041c0-0.522-0.417-0.957-0.952-0.957
		h-6.733c-0.536,0-0.954,0.435-0.954,0.957V66.584z M59.012,28.471l3.873-7.02 M38.694,28.471l-4.23-7.02 M48.675,28.441V17.507
		 M75.486,38.014h-9.83l-5.006-1.886c-3.843-1.479-7.597-1.276-12.064,3.22L35.863,52.139c3.784,3.771,8.461,2.32,12.245-1.508
		l3.308-3.307l16.026,16.301c0.477,0.493,0.775,1.159,0.835,1.798v0.029h7.209 M35.894,62.146c-1.103-1.103-2.889-1.103-3.991,0
		l-2.414,2.436c-1.102,1.104-1.102,2.902,0,4.033c1.102,1.102,2.89,1.102,3.992,0l2.413-2.438
		C36.995,65.074,36.995,63.277,35.894,62.146z M44.921,70.586c-1.222-1.247-3.218-1.247-4.439,0l-2.681,2.698
		c-1.222,1.218-1.222,3.219,0,4.467c1.25,1.217,3.217,1.217,4.438,0l2.682-2.698C46.143,73.806,46.143,71.805,44.921,70.586z
		 M40.452,66.091c-1.222-1.248-3.218-1.248-4.439,0l-2.681,2.668c-1.222,1.247-1.222,3.249,0,4.468c1.221,1.246,3.217,1.246,4.438,0
		l2.682-2.698C41.673,69.31,41.673,67.309,40.452,66.091z M48.823,75.198c-1.103-1.103-2.891-1.103-3.993,0l-2.412,2.437
		c-1.103,1.102-1.103,2.9,0,4.032c1.103,1.102,2.89,1.102,3.992,0l2.413-2.438C49.926,78.128,49.926,76.329,48.823,75.198z
		 M49.896,37.955H24.007 M24.007,66.322h4.141 M48.376,80.563l1.222,0.986c1.162,1.189,3.068,1.189,4.261,0
		c0.834-0.812,1.072-2.03,0.715-3.074c1.252,0.58,2.77,0.348,3.783-0.667c1.162-1.16,1.311-2.959,0.418-4.265
		c1.489,1.161,3.604,1.073,4.944-0.289c1.251-1.247,1.431-3.19,0.507-4.641c1.072,0.405,2.324,0.173,3.217-0.696
		c1.163-1.189,1.163-3.104,0-4.293l-15.373-16.04"/>
</g>
</svg>
